<svg id="Layer_1" data-name="Layer 1" xmlns="http://www.w3.org/2000/svg" viewBox="0 0 1020 308"><defs><style>.cls-1{fill:#f2385a;}.cls-1,.cls-4,.cls-5,.cls-6,.cls-7{opacity:0.83;}.cls-2{fill:#f2f2f2;}.cls-3{fill:none;stroke:#f2f2f2;stroke-miterlimit:10;stroke-width:0.8px;}.cls-4{fill:#36b1bf;}.cls-5{fill:#00abbd;}.cls-6{fill:#f5a503;}.cls-7{fill:#ffec5f;}</style></defs><title>half_logo_net</title><rect class="cls-1" x="87.21" y="-0.32" width="176.06" height="176.06" rx="9.6"/><rect class="cls-1" x="108.82" y="21.29" width="132.84" height="132.84" rx="0.92"/><path d="M435.5,183.2c-2.5,19.87-16,35.1-42.62,35.1-28.36,0-45.91-23.91-45.91-51.69,0-27.58,17.36-50.92,45.91-50.92,22.37,0,38.19,11.77,42.24,31.44h-2.9c-4.63-20.45-21.21-28.74-39.34-28.74-23,0-43,17.36-43,48.22,0,30.48,19.87,49,43,49,22.95,0,37-11.95,39.73-32.4Z"/><path d="M444.76,166.8c0-27.58,17.36-51.11,45.91-51.11,28.74,0,45.91,23.34,45.91,50.92s-17.17,51.69-45.91,51.69C462.12,218.3,444.76,194.39,444.76,166.8Zm88.92-.19c0-30.86-20.06-48.22-43-48.22s-43,17.55-43,48.41,20.06,48.8,43,48.8S533.68,197.47,533.68,166.61Z"/><path d="M635.14,183.2c-2.5,19.87-16,35.1-42.62,35.1-28.36,0-45.91-23.91-45.91-51.69,0-27.58,17.36-50.92,45.91-50.92,22.37,0,38.19,11.77,42.24,31.44h-2.89c-4.63-20.45-21.22-28.74-39.35-28.74-23,0-43,17.36-43,48.22,0,30.48,19.87,49,43,49,23,0,37-11.95,39.73-32.4Z"/><path d="M644.4,166.8c0-27.58,17.36-51.11,45.91-51.11,28.74,0,45.91,23.34,45.91,50.92s-17.17,51.69-45.91,51.69C661.76,218.3,644.4,194.39,644.4,166.8Zm88.93-.19c0-30.86-20.07-48.22-43-48.22s-43,17.55-43,48.41,20.06,48.8,43,48.8S733.33,197.47,733.33,166.61Z"/><path d="M829.77,186.48h-.19c-4.82,19.67-20.45,31.63-40.31,31.63-24.69,0-43-20.06-43-51.31,0-34.91,20.45-51.11,42.63-51.11,17.94,0,34.72,9.84,40.7,32h.19V78.85h2.9V216.76h-2.9Zm0-19.1c0-30.67-17-49-40.12-49-21.41,0-40.5,14.66-40.5,48.61,0,30.09,17.74,48.41,40.31,48.41C812.8,215.41,829.77,197.86,829.77,167.38Z"/><path d="M851.18,165.65C851.38,195,867,215.6,894,215.6c18.14,0,32.6-9.25,37.62-28h2.89C930.85,204,917.15,218.3,894,218.3c-29.7,0-45.71-22.76-45.71-52.85,0-27.39,16.59-49.76,44.75-49.76,10.22,0,18.9,2.89,25.46,8.29,11,8.49,17,23.34,17.75,41.67ZM893,118.39c-22,0-40.89,16.4-41.86,44.56h82.17C931,130.93,912.33,118.39,893,118.39Z"/><path d="M978.49,212.9l37-95.86h3.08L980,216.76H977L938.37,117h3.09Z"/><circle class="cls-2" cx="175.58" cy="87.31" r="14.07"/><line class="cls-3" x1="86.56" y1="175.34" x2="175.58" y2="87.31"/><line class="cls-3" x1="219.1" y1="219.36" x2="175.58" y2="87.31"/><rect class="cls-4" x="0.17" y="87.71" width="176.06" height="176.06" rx="9.6"/><rect class="cls-5" x="20.78" y="109.32" width="132.84" height="132.84" rx="9.6"/><circle class="cls-2" cx="86.56" cy="175.34" r="14.07"/><line class="cls-3" x1="219.1" y1="219.36" x2="87.06" y2="174.85"/><rect class="cls-6" x="131.22" y="131.73" width="176.06" height="176.06" rx="9.6"/><rect class="cls-7" x="152.83" y="153.33" width="132.84" height="132.84" rx="9.6"/><circle class="cls-2" cx="219.1" cy="219.36" r="14.07"/></svg>