<svg id="Layer_1" data-name="Layer 1" xmlns="http://www.w3.org/2000/svg" viewBox="0 0 170.38 67.92"><defs><style>.cls-1{font-size:23px;font-family:NHaasGroteskDSPro-15UltTh, Neue Haas Grotesk Display Pro;}.cls-2{letter-spacing:0em;}.cls-3{letter-spacing:-0.02em;}.cls-4{letter-spacing:-0.01em;}.cls-5{letter-spacing:0em;}.cls-6{letter-spacing:-0.01em;}.cls-7{fill:#f2385a;}.cls-10,.cls-11,.cls-7,.cls-8,.cls-9{opacity:0.83;}.cls-8{fill:#36b1bf;}.cls-9{fill:#00abbd;}.cls-10{fill:#f5a503;}.cls-11{fill:#ffec5f;}.cls-12{fill:#f2f2f2;}.cls-13{fill:none;stroke:#f2f2f2;stroke-miterlimit:10;}</style></defs><title>full_logo_net</title><text class="cls-1" transform="translate(49.56 18.46)">compu<tspan class="cls-2" x="64.42" y="0">t</tspan><tspan class="cls-3" x="70.4" y="0">a</tspan><tspan x="81.19" y="0">tion</tspan><tspan x="0" y="21.6">cognition +</tspan><tspan x="0" y="43.2">d</tspan><tspan class="cls-4" x="12.17" y="43.2">ev</tspan><tspan class="cls-5" x="32.77" y="43.2">elopme</tspan><tspan class="cls-6" x="100.95" y="43.2">n</tspan><tspan x="111.73" y="43.2">t</tspan></text><rect class="cls-7" x="14.25" y="9.58" width="26.24" height="26.24" rx="1.15"/><rect class="cls-7" x="17.47" y="12.81" width="19.8" height="19.8" rx="1.15"/><rect class="cls-8" x="1.27" y="22.71" width="26.24" height="26.24" rx="1.15"/><rect class="cls-9" x="4.35" y="25.93" width="19.8" height="19.8" rx="1.15"/><rect class="cls-10" x="20.81" y="29.27" width="26.24" height="26.24" rx="1.15"/><rect class="cls-11" x="24.03" y="32.49" width="19.8" height="19.8" rx="1.15"/><circle class="cls-12" cx="27.44" cy="22.71" r="2.1"/><circle class="cls-12" cx="14.17" cy="35.83" r="2.1"/><line class="cls-13" x1="14.17" y1="35.83" x2="27.44" y2="22.71"/><circle class="cls-12" cx="33.93" cy="42.39" r="2.1"/><line class="cls-13" x1="33.93" y1="42.39" x2="27.44" y2="22.71"/><line class="cls-13" x1="33.93" y1="42.39" x2="14.25" y2="35.75"/></svg>