<svg id="Layer_1" data-name="Layer 1" xmlns="http://www.w3.org/2000/svg" viewBox="0 0 171.45 204.62"><defs><style>.cls-1{fill:#a62131;}.cls-2,.cls-4,.cls-5{fill:none;stroke:#000;}.cls-2{stroke-width:0.23px;}.cls-3{fill:#fff;}.cls-4{stroke-width:0.01px;}.cls-5{stroke-width:0.01px;}</style></defs><title>harvard_shield</title><path class="cls-1" d="M2.18,2.21h167.9V65.63c0,29.06-10.82,90.69-83.32,136.55,0,0-78.56-32.81-84.58-136.55Z"/><path class="cls-2" d="M1.84,2H169.9V65.51c0,29.07-10.83,90.73-83.4,136.62,0,0-78.64-32.83-84.66-136.62Z"/><path class="cls-3" d="M129.26,83.71s-1.49,4.77-8.15-.14L98.25,83s-3,1-3.4-2.17c0,0,.55-6.25.27-6.8,0,0,.14-1.77-2.86-1.77,0,0-4.62.55-4.76-3.54,0,0-.81-4.35,5.58-4.21,0,0,2,1,2.18-1.64,0,0-.27-17.69-.14-19,0,0,.55-1.63-2.59-1.91,0,0-4.48,1-5-2,0,0-.27-4.49,2.73-4.77,0,0,3.67.28,4.35-.68,0,0,.82.54.68-2.71l.14-5.59s.39-1.49,2.71-1.35c0,0,4.22.27,4.77-.14a18,18,0,0,0,1.22-1.77s2.18-.14,2.58.41c0,0,3.27,2.18,15.65,1.36,0,0,1.91,0,2.31.55,0,0,2.32,1.76,3.67-.14a44.57,44.57,0,0,1,8.16-.27s6.68,1.76,11.29-2l1.5.28s1.91,3.12,3.27,2.18c0,0,4.08-.41,4.75.41,0,0,1.36,2,.68,7.35,0,0-.8,2.3,3.14,2.3,0,0,4.49-.82,3.94,3.4,0,0,1.22,4.76-6.25,4.08a4.32,4.32,0,0,0-.83,2.32s-.13,15.5-.26,17.28c0,0-.14,2.45,3.12,2.31,0,0,4.36-.28,4.5,3.67,0,0,.54,5.17-5.72,4.21,0,0-1.9.28-2.19,1.5l-.25,6.8s.12,3.4-3.68,2.58c-.54,0-21.22.42-23-.12,0,0-1-.14-1.23.4"/><path class="cls-3" d="M85.32,106.44a2.53,2.53,0,0,0,1.22-1.07s2.86-.28,3.27-.68l9,.68s8.84.67,12.65-2.06a7,7,0,0,1,2.32.41s1.9.42,2.44,1.22l5.17-.13s3,1,2.72,2.86v2.45s-.55,4.9.81,5.17h4s3.26,1.5,2.85,3.4A3.2,3.2,0,0,1,129,122a16.46,16.46,0,0,1-3.81.69,5.83,5.83,0,0,0-1.1,2.71l-.4,17.83s-.28,1.9,2.58,1.63c0,0,4.21-.41,5.44,1.91,0,0,1.09,3.94-1.08,4.62l-1.63.81-3.55.56s-1.49.13-1.63,2.71v4.75s.14,3.28-2.45,3.28l-3.81.27a3.12,3.12,0,0,1-2.85.26s-23.13.42-23.95.15l-2.72.55s-3,2.72-5.44.67l-1.9-1.5a6.27,6.27,0,0,1-1.9.13c-.55-.13-25.58.28-25.58.28s-5.31.55-5.71-1.23c0,0-.68-6.93-.41-7.76,0,0,0-2-1.22-2.16,0,0-5.31-.27-5.45-.83,0,0-2.86-2-2-4.06a4.73,4.73,0,0,1,3.81-3s4.35.68,4.35-.54a7.37,7.37,0,0,0,.28-2.18s.27-16.19.13-17.28c0,0,.41-2-1.36-2a4.38,4.38,0,0,1-3.12-.27s-3.27.13-3.95-2.45a4,4,0,0,1,.26-3s1.51-3,5.86-2c0,0,2.45.69,2.72-1.07l-.13-6.55s-.55-1.76,2.85-2.71c0,0,4.36,1.22,5.71-1,0,0,1.5-3,2.71-1,0,0,2.6,2.45,9.67,2.19,0,0,12.25-1,12.52-.43,0,0,3,.43,3.8,1.37Z"/><path class="cls-3" d="M48.34,83.71s-1.51,4.77-8.17-.14L17.32,83s-3,1-3.41-2.17c0,0,.55-6.25.27-6.8,0,0,.14-1.77-2.86-1.77,0,0-4.61.55-4.75-3.53,0,0-.82-4.37,5.58-4.22,0,0,2,1,2.17-1.64,0,0-.27-17.68-.14-19,0,0,.55-1.61-2.58-1.89,0,0-4.49.94-5-2.05,0,0-.27-4.48,2.71-4.76,0,0,3.68.28,4.36-.66,0,0,.82.52.68-2.74l.14-5.58s.41-1.49,2.71-1.36c0,0,4.23.27,4.78-.13a15.32,15.32,0,0,0,1.21-1.77s2.19-.13,2.59.4c0,0,3.26,2.19,15.65,1.37,0,0,1.9,0,2.31.55,0,0,2.31,1.76,3.67-.15a45.9,45.9,0,0,1,8.16-.27s6.66,1.77,11.29-2l1.49.28s1.9,3.11,3.28,2.17c0,0,4.07-.42,4.76.41,0,0,1.36,2,.67,7.35,0,0-.81,2.31,3.13,2.31,0,0,4.49-.81,4,3.39,0,0,1.23,4.76-6.26,4.08A4.38,4.38,0,0,0,77,45.08s-.13,15.5-.27,17.28c0,0-.13,2.43,3.13,2.31,0,0,4.36-.29,4.49,3.67,0,0,.54,5.17-5.71,4.21,0,0-1.91.28-2.18,1.5l-.27,6.8s.14,3.4-3.68,2.59c-.54,0-21.21.4-23-.13,0,0-.95-.14-1.21.4"/><path d="M129.26,83.71s-1.49,4.77-8.15-.14L98.25,83s-3,1-3.4-2.17c0,0,.55-6.25.27-6.8,0,0,.14-1.77-2.86-1.77,0,0-4.62.55-4.76-3.54,0,0-.81-4.35,5.58-4.21,0,0,2,1,2.18-1.64,0,0-.27-17.69-.14-19,0,0,.55-1.63-2.59-1.91,0,0-4.48,1-5-2,0,0-.27-4.49,2.73-4.77,0,0,3.67.28,4.35-.68,0,0,.82.54.68-2.71l.14-5.59s.39-1.49,2.71-1.35c0,0,4.22.27,4.77-.14a18,18,0,0,0,1.22-1.77s2.18-.14,2.58.41c0,0,3.27,2.18,15.65,1.36,0,0,1.91,0,2.31.55,0,0,2.32,1.76,3.67-.14a44.57,44.57,0,0,1,8.16-.27s6.68,1.76,11.29-2l1.5.28s1.91,3.12,3.27,2.18c0,0,4.08-.41,4.75.41,0,0,1.36,2,.68,7.35,0,0-.8,2.3,3.14,2.3,0,0,4.49-.82,3.94,3.4,0,0,1.22,4.76-6.25,4.08a4.32,4.32,0,0,0-.83,2.32s-.13,15.5-.26,17.28c0,0-.14,2.45,3.12,2.31,0,0,4.36-.28,4.5,3.67,0,0,.54,5.17-5.72,4.21,0,0-1.9.28-2.19,1.5l-.25,6.8s.12,3.4-3.68,2.58c-.54,0-21.22.42-23-.12,0,0-1-.14-1.23.4"/><path class="cls-4" d="M129.26,83.71s-1.49,4.77-8.15-.13L98.25,83s-3,1-3.4-2.18c0,0,.55-6.25.27-6.8,0,0,.13-1.77-2.86-1.77,0,0-4.63.55-4.76-3.54,0,0-.81-4.35,5.58-4.21,0,0,2,1,2.17-1.64,0,0-.27-17.69-.13-19,0,0,.55-1.63-2.59-1.91,0,0-4.49,1-5-2,0,0-.27-4.5,2.72-4.77,0,0,3.67.27,4.35-.68,0,0,.83.54.68-2.72l.15-5.58s.39-1.5,2.71-1.35c0,0,4.22.27,4.77-.15a17.54,17.54,0,0,0,1.22-1.76s2.18-.14,2.58.41c0,0,3.27,2.17,15.65,1.35,0,0,1.91,0,2.31.55,0,0,2.32,1.77,3.67-.13a43.32,43.32,0,0,1,8.16-.27s6.68,1.76,11.3-2l1.5.27s1.9,3.13,3.26,2.18c0,0,4.08-.4,4.75.41,0,0,1.36,2,.69,7.35,0,0-.81,2.31,3.13,2.31,0,0,4.49-.82,3.94,3.39,0,0,1.22,4.77-6.25,4.09a4.34,4.34,0,0,0-.82,2.32s-.13,15.5-.27,17.27c0,0-.14,2.45,3.13,2.32,0,0,4.36-.28,4.5,3.67,0,0,.53,5.17-5.73,4.21,0,0-1.9.28-2.18,1.5l-.26,6.8s.12,3.41-3.67,2.59c-.54,0-21.23.41-23-.13C130.49,83.31,129.53,83.18,129.26,83.71Z"/><path class="cls-3" d="M103.55,27.66s.27,2.72.27,3.41-.4,39.31-.4,39.31a4.71,4.71,0,0,1-2.17,4.49s-.69.27-.82-1.64l.27-40.8s.27-5,2.85-4.77"/><path class="cls-5" d="M103.56,27.65s.26,2.73.26,3.42-.39,39.31-.39,39.31a4.72,4.72,0,0,1-2.18,4.49s-.69.27-.83-1.63l.28-40.81S101,27.38,103.56,27.65Z"/><path class="cls-3" d="M99.07,75.27s.27-38.36.14-39,.13.56.13.56-.41-6.68,1.36-9.41c0,0-.55-2.3-3.68.56l-.13,5.57s0,3.13-2.86,3c0,0-3.26-.14-4.76,1.36,0,0-.82,3,2.31,2.46,0,0,4.9,0,5.17,2l-.27,20.54s1.09,3.42-2.71,3.42c0,0-4.64-.29-4.5,2.57,0,0,1,2.44,4.9,1.63,0,0,2.85.54,2.72,3.27V79s-.28,2,2.45,2.18h21.22s1.08.13,1.08-1.23c0,0-.13-1.09-1.76-1.09l-17.68-.27s-2.86,1-3.13-3.27"/><path class="cls-3" d="M103.15,75.21s-.55,1.9,1.49,1.51h14l3.8.82s3.94-1,0-3.13c0,0-12.51.12-13.6-.14l-3.14-.82s-1.35-.54-2.57,1.76"/><path class="cls-5" d="M103.15,75.21s-.55,1.91,1.49,1.51h14l3.8.83s4-1,0-3.15c0,0-12.51.13-13.6-.13l-3.14-.82S104.37,72.91,103.15,75.21Z"/><path class="cls-3" d="M126.41,77.12s-2.59,0-2.45,3.41a2.91,2.91,0,0,0,3,2.57A2.71,2.71,0,0,0,129.13,80s-1.5-3.4-2.72-2.86"/><path class="cls-3" d="M128.31,75.76s1.23-1.35,2.05-1.35c0,0,13.6,1.22,15.9-.41,0,0,2.05-.41,2.6,0,0,0,2,1.63,2,2.58,0,0-.13,1.23-2.58.53l-16.19.15s-4.23.95-3.81-1.5"/><path class="cls-5" d="M128.31,75.76s1.22-1.36,2-1.36c0,0,13.61,1.22,15.91-.41,0,0,2.05-.4,2.6,0,0,0,2,1.63,2,2.59,0,0-.14,1.24-2.59.54l-16.2.15S127.89,78.21,128.31,75.76Z"/><path class="cls-3" d="M130.08,80.17s0-1.1,1.91-1.1l19-.13s1.78,1,1.78-2.3c0,0,.7-14.83.76-31.16,0-4.86.24-10,.07-14.68,0,0-.42-2.05-1-2.46,0,0,0-2.18,2.32-1.36,0,0,2,.14,1.49,3.28l.14,4.74s-.41,2,3.26,1.5c0,0,3.67.55,3.81,1.9,0,0,1.09,2.74-3.26,2.46h-3.14a2.25,2.25,0,0,0-.95,2.45L155.93,63s-.28,3.39,3,3.27c0,0,3.39-.15,4.08,1,0,0,2.32,3.4-2.72,3.12,0,0-3.13-.14-3.81.41,0,0-.54.68-.95,7.08,0,0,.28,3.81-2.58,3.39,0,0-18.92.27-20.68-.13,0,0-1.91.55-2.18-1"/><path class="cls-3" d="M105.6,26.42l-.41,43.68s-.14,2,3.26,2.44c0,0,4,.41,4.89,0,0,0,2.6-.14,9.26.14,0,0,1.64,1.64,1.78-.41,0,0,1.07-35.36.54-42.72,0,0-.15-3.13-2.45-3.27,0,0-10.34.84-11.3,0l-4.08-1.07s-1.63.13-1.49,1.21"/><path class="cls-3" d="M127.09,28.61s-.41,20.54-.27,21.22l-.27,17.27-.55,6s.82,1.22,1.5.41c0,0,4.35-1.1,7.07-.67,0,0,8.71.81,10.48-.56,0,0,1.36.68,1.76-1.5,0,0,.54-38.08.28-38.76,0,0,.53-5.46.26-6,0,0-.12-1.22-2.44-.14,0,0,.26,1.1-12.65.67,0,0-4.9-.13-5.17,2.06"/><path class="cls-3" d="M148.72,28.07l-.13,43s1.09,3.82,2.85,3.42a11.23,11.23,0,0,0,.4-2.19l.55-40.95s-1.37-6.52-3.67-3.26"/><path class="cls-5" d="M148.72,28.06l-.13,43s1.09,3.83,2.85,3.42a11.39,11.39,0,0,0,.41-2.18l.54-41S151,24.81,148.72,28.06Z"/><path d="M132,40.94c-.41-1.09,2.31-1.23,2.31-1.23l1.37.27a4.07,4.07,0,0,1,1.9.28,1.57,1.57,0,0,1-.68,2.31l-.54,1.77c-.15,1.5,0,14.43,0,14.43a10,10,0,0,0,1.36,1.89c0,1.23-1.51,1-1.51,1l-3.93.13c-1.23-.13-.83-1.5-.83-1.5,1.36-.68,1.77-3.13,1.77-3.13V43.66Z"/><path d="M113.79,42.84c.13,3,.13,7.08.13,7.08A2.56,2.56,0,0,0,118,49.1c3.4-3.26,0-6.26-.53-7.07s-3.28-.14-3.28-.14Zm-.13,10.75-.27,4.22,1.21,2c.83,1.09-.54,1.91-.54,1.91l-4.35-.4c-.81-.42,0-1.78,0-1.78a3.54,3.54,0,0,0,1.23-2.45l-.14-7.89.14-5.71c0-.68-1.09-1.9-1.09-1.9-.95-.14-.68-1.36-.68-1.36.27-.68,2.57-.28,2.57-.28h5.73c5.44,1.77,4.62,5.72,4.62,5.72.41,3.94-3.8,5.58-3.8,5.58L118,53.46l4,6.25a1.13,1.13,0,0,1,.54,1.09c-.54,1.5-2.73,0-2.73,0l-4.89-7.62c-.41-.55-1.22.41-1.22.41"/><path d="M85.32,106.44a2.53,2.53,0,0,0,1.22-1.07s2.86-.28,3.27-.68l9,.68s8.84.67,12.65-2.06a7,7,0,0,1,2.32.41s1.9.42,2.44,1.22l5.17-.13s3,1,2.72,2.86v2.45s-.55,4.9.81,5.17h4s3.26,1.5,2.85,3.4A3.2,3.2,0,0,1,129,122a16.46,16.46,0,0,1-3.81.69,5.83,5.83,0,0,0-1.1,2.71l-.4,17.83s-.28,1.9,2.58,1.63c0,0,4.21-.41,5.44,1.91,0,0,1.09,3.94-1.08,4.62l-1.63.81-3.55.56s-1.49.13-1.63,2.71v4.75s.14,3.28-2.45,3.28l-3.81.27a3.12,3.12,0,0,1-2.85.26s-23.13.42-23.95.15l-2.72.55s-3,2.72-5.44.67l-1.9-1.5a6.27,6.27,0,0,1-1.9.13c-.55-.13-25.58.28-25.58.28s-5.31.55-5.71-1.23c0,0-.68-6.93-.41-7.76,0,0,0-2-1.22-2.16,0,0-5.31-.27-5.45-.83,0,0-2.86-2-2-4.06a4.73,4.73,0,0,1,3.81-3s4.35.68,4.35-.54a7.37,7.37,0,0,0,.28-2.18s.27-16.19.13-17.28c0,0,.41-2-1.36-2a4.38,4.38,0,0,1-3.12-.27s-3.27.13-3.95-2.45a4,4,0,0,1,.26-3s1.51-3,5.86-2c0,0,2.45.69,2.72-1.07l-.13-6.55s-.55-1.76,2.85-2.71c0,0,4.36,1.22,5.71-1,0,0,1.5-3,2.71-1,0,0,2.6,2.45,9.67,2.19,0,0,12.25-1,12.52-.43,0,0,3,.43,3.8,1.37Z"/><path class="cls-4" d="M85.32,106.28a2.55,2.55,0,0,0,1.22-1.08s2.86-.28,3.27-.69l9,.69s8.84.68,12.65-2a7,7,0,0,1,2.32.41s1.9.41,2.43,1.21l5.19-.13s3,1,2.71,2.87V110s-.54,4.9.81,5.17h4s3.26,1.5,2.86,3.41a3.21,3.21,0,0,1-2.72,3.26,16.57,16.57,0,0,1-3.81.68,5.84,5.84,0,0,0-1.1,2.72l-.4,17.83s-.28,1.89,2.58,1.63c0,0,4.21-.41,5.45,1.9,0,0,1.09,3.95-1.09,4.63L129,152l-3.55.55s-1.49.14-1.62,2.71V160s.13,3.27-2.45,3.27l-3.81.27a3.16,3.16,0,0,1-2.86.27s-23.13.41-23.95.13l-2.73.55s-3,2.72-5.43.67l-1.91-1.5a6.77,6.77,0,0,1-1.9.15c-.54-.15-25.57.27-25.57.27s-5.31.55-5.72-1.22c0,0-.67-6.94-.41-7.77,0,0,0-2-1.22-2.16,0,0-5.31-.27-5.45-.82,0,0-2.85-2-2-4.08a4.73,4.73,0,0,1,3.82-3s4.35.7,4.35-.55a7.23,7.23,0,0,0,.28-2.16s.26-16.2.13-17.28c0,0,.41-2-1.37-2a4.38,4.38,0,0,1-3.12-.27s-3.27.14-3.94-2.45a3.94,3.94,0,0,1,.26-3s1.5-3,5.85-2c0,0,2.45.68,2.73-1.08l-.14-6.54s-.55-1.76,2.86-2.72c0,0,4.35,1.23,5.71-1,0,0,1.49-3,2.71-1,0,0,2.6,2.46,9.67,2.2,0,0,12.25-1,12.51-.43,0,0,3,.43,3.81,1.38Z"/><path class="cls-3" d="M88.86,159.91a4.88,4.88,0,0,1,2.72-.54c1.1.27,17-.14,17-.14s6.93.54,8-.42l1.62-.54a3.24,3.24,0,0,0,.68-1.89c0-1.1.14-4.78.14-4.78l.41-1.35s-.14-1.36,0-37.69c0,0,.54-2.84-1.23-4.62,0,0,0-1.08.54-1s.28.15.28.15,2.45-.7,2.85.26c0,0,1.1,3.25.14,5.16,0,0-.28,4,1.78,4a2.56,2.56,0,0,0,2.44.41s3.54.41,3.54,1.49a2,2,0,0,1-2.45,2l-3.28.27a2.53,2.53,0,0,0-1.89,3c.27,2.59-.14,21.09-.14,21.09s0,2.18,3.41,2.05c0,0,4.21-.14,4.21,1.08,0,0,1.08,2.72-1.9,2.86,0,0-5.72-.14-5.31,1.48a38.81,38.81,0,0,1-.69,4.49s.56,3.14-.13,3.69c0,0-.4,1.76-4.07,1.49,0,0-23.4-.13-27.08.14,0,0-2.18-.27-1.63-2.18"/><path class="cls-3" d="M84.65,157.33A2.75,2.75,0,0,1,87,159.91c0,2.17.13,3.4-1.23,3.67a2.52,2.52,0,0,1-3.25-1.9c-.42-1.77.26-4,2.17-4.35"/><path class="cls-3" d="M87.36,156.24s2.45-1.64,3.4-1.36c0,0,12.38.81,16.2.14s1.49-.14,1.49-.14,3.27,0,4.21-1.23a1.35,1.35,0,0,1,1.5.69l2,2.18s.16,1.35-2.16,1.21c0,0-22.18,0-22.86.14,0,0-4.21.67-3.81-1.63"/><path class="cls-5" d="M87.36,156.24s2.45-1.64,3.4-1.36c0,0,12.38.81,16.2.14s1.49-.14,1.49-.14,3.27,0,4.22-1.24a1.36,1.36,0,0,1,1.5.69l2,2.19s.15,1.35-2.17,1.21c0,0-22.18,0-22.86.14C91.17,157.87,87,158.54,87.36,156.24Z"/><path class="cls-3" d="M55.13,107.94s.95,0,.81,1.64l-.28,41.08a5,5,0,0,1-1.89,4.49s-1.24,1.49-1.24-.81l.56-41.91s.13-3.13,2-4.49"/><path class="cls-5" d="M55.13,107.94s.95,0,.82,1.63l-.29,41.09a5,5,0,0,1-1.9,4.49s-1.23,1.5-1.23-.81l.55-41.91S53.21,109.3,55.13,107.94Z"/><path class="cls-3" d="M53,108.22s-1.63,3-1.5,3.68l-.13,9.1s-.14,5.85,0,6.54-.14,17.82-.14,17.82a43.49,43.49,0,0,0,0,4.35v7.34s-.28,3.27,2.17,2.44c0,0,23.95-.53,25.45-.12,0,0,2.17.4,1.36,1.49,0,0,0,1-1.51.68a186.47,186.47,0,0,1-21.48.68s-6.81.4-7.22-.4c0,0-1.09-.14-1.09-4.09a28.42,28.42,0,0,0-.26-4.34s.26-1.93-3.13-2.32c0,0-4.76.82-4.9-2,0,0,.67-2,5.31-1.77,0,0,3.4.54,2.72-2.19L49,125s.42-3.55-1.9-3.69a12.27,12.27,0,0,0-2.86.14s-3.94,0-3.67-2.29c0,0,1.36-2.46,5.31-1.91,0,0,3,.54,3.12-2.85,0,0-.14-6.95,1.49-7.21,0,0,3.41.12,2.46,1.08"/><path class="cls-3" d="M57,153.24a7,7,0,0,0,5,1.91l18.48.27s2,.14,1.93,1.22c0,0-.29,1.63-2.73,1.09l-22.32-.27-2.45.15s-1.63-.28,1-3.41Z"/><path class="cls-5" d="M57,153.24a7,7,0,0,0,5,1.91l18.49.27s2,.14,1.92,1.22c0,0-.29,1.64-2.72,1.1l-22.33-.27-2.45.14s-1.63-.28,1-3.41Z"/><path class="cls-3" d="M114.16,151.46s1.64,3.14,2.45,3.57c0,0,1.5,1.75,1.09-1.38l.27-39.18a8.1,8.1,0,0,1,0-3.53l-1.63-3s-1.77-1.36-1.77.82l-.27,41.77Z"/><path class="cls-5" d="M114.16,151.47s1.64,3.13,2.46,3.56c0,0,1.49,1.76,1.09-1.38l.27-39.19a8,8,0,0,1,0-3.52l-1.64-3s-1.77-1.36-1.77.82l-.27,41.77Z"/><path class="cls-3" d="M84,132.84a42.26,42.26,0,0,1-.27,6.37c-.22,1.73.55,9.67-.14,13.75,0,0-.12,1.36-3,.15,0,0-17.41.4-18-.15,0,0-4.75.15-5.17-2.31,0,0,.68-18.64.28-19.33,0,0-.28-10.2,0-11.15,0,0,.4-9.38.14-10.47a10.7,10.7,0,0,0-.28-3.27s0-1.36,2.32-.55c0,0,.8,1.5,5.3.84a24.84,24.84,0,0,0,6.4.12s6.93-.54,8.71,0a3.05,3.05,0,0,1,3.52,2.46l-.13,8.43.81,2.72,1-.67.4-2,.14-9a3.16,3.16,0,0,1,2.72-1.91s3.4-.41,4-.12a46.47,46.47,0,0,0,9.92.26c2-.41,2.44,1.36,8.57-1.76,0,0,1.64.13,1.64,1.21,0,0-.56,11.58,0,13.74,0,0,0,21.22-.43,22.72l.28,6.8s.27,3-4.48,3.27c0,0,3,.41-15.79-.13a15,15,0,0,0-6.25,1.35s-.68-.13-.68-1.9a85.42,85.42,0,0,0,0-12.66l-.27-6.93Z"/><path d="M71.72,123.18s.41,10.07,0,11.43l-.13,2.18a5,5,0,0,0,1.35,2s.69,1.9-1,1.76a36.87,36.87,0,0,0-4.21-.14s-1.91,0,0-2.44a5.7,5.7,0,0,0,.54-3.4s0-11.43.28-12.1c0,0,.26-1.51-.69-1.92l-1.64.14-2,1.91s-.41,2-1.37-.13v-1.1l1.24-3.26.81-.14a9.48,9.48,0,0,0,2.31,1.1h6.4l2.31-1.1s1,.14.69,1.36c0,0,.39,3.14-1.37,3.54A3.11,3.11,0,0,1,73.63,121s-1.77-.94-1.91,2.18"/><path d="M101.78,119.51a4.88,4.88,0,0,0-5.29,5.17s-.56,3.82,5.16,6.27c0,0,4.22,2,3.94,4.61,0,0-.54,4.63-5,2.32,0,0-2.18-1.1-2-2.32,0,0-.69-1.5-1.51-1.22,0,0-1,.26-.53,4.76,0,0,0,1.77,2,0l1.07.27s3.68,3,6.8-.68c0,0,3.41-3.13,1-6.94a12.31,12.31,0,0,0-4.9-4.07s-3-1.37-3.67-3.68c0,0,1-4.09,4.62-1.91a8.36,8.36,0,0,0,2.18,1.91s1.09,0,.81-2.46l-.25-2s-.28-1.51-2.19,0c0,0-1.77.67-2.18,0"/><path d="M83,125.62c-.14.69-1.1,4.5-1.1,4.5l.82,1.37s2.18.12,3,.12,1-.66,1-1.36a40.85,40.85,0,0,0-1.49-4.75l-.69-.82Zm2.17-9a3.17,3.17,0,0,1,1.08,2,158.37,158.37,0,0,1,5,17.69,9.76,9.76,0,0,0,1.9,2.44c2.32.81,0,1.49,0,1.49-.95.41-4.07-.13-4.07-.13-1.64-.29-1-.82-1-.82.69-.68.14-3.41.14-3.41A9.34,9.34,0,0,0,87,133.11c-.55-.27-1.5.95-1.5.95s-1.49.55-1.64,0S82.74,133,82.74,133c-1.64,0-2.31,4.06-2.31,4.06.95,3.4,0,2.85,0,2.85-.81,1.1-3.41.29-3.41.29-1.22-.29-.39-1.24-.39-1.24a2.64,2.64,0,0,0,1.89-1.9c.68-1,5-18.63,5-18.63.42-.82.68-2.45,1.64-1.77"/><path d="M48.34,83.71s-1.51,4.77-8.17-.14L17.32,83s-3,1-3.41-2.17c0,0,.55-6.25.27-6.8,0,0,.14-1.77-2.86-1.77,0,0-4.61.55-4.75-3.53,0,0-.82-4.37,5.58-4.22,0,0,2,1,2.17-1.64,0,0-.27-17.68-.14-19,0,0,.55-1.61-2.58-1.89,0,0-4.49.94-5-2.05,0,0-.27-4.48,2.71-4.76,0,0,3.68.28,4.36-.66,0,0,.82.52.68-2.74l.14-5.58s.41-1.49,2.71-1.36c0,0,4.23.27,4.78-.13a15.32,15.32,0,0,0,1.21-1.77s2.19-.13,2.59.4c0,0,3.26,2.19,15.65,1.37,0,0,1.9,0,2.31.55,0,0,2.31,1.76,3.67-.15a45.9,45.9,0,0,1,8.16-.27s6.66,1.77,11.29-2l1.49.28s1.9,3.11,3.28,2.17c0,0,4.07-.42,4.76.41,0,0,1.36,2,.67,7.35,0,0-.81,2.31,3.13,2.31,0,0,4.49-.81,4,3.39,0,0,1.23,4.76-6.26,4.08A4.38,4.38,0,0,0,77,45.08s-.13,15.5-.27,17.28c0,0-.13,2.43,3.13,2.31,0,0,4.36-.29,4.49,3.67,0,0,.54,5.17-5.71,4.21,0,0-1.91.28-2.18,1.5l-.27,6.8s.14,3.4-3.68,2.59c-.54,0-21.21.4-23-.13,0,0-.95-.14-1.21.4"/><path class="cls-4" d="M48.34,83.71s-1.51,4.77-8.17-.14L17.31,83s-3,1-3.4-2.18c0,0,.55-6.25.27-6.8,0,0,.14-1.77-2.86-1.77,0,0-4.62.56-4.75-3.53,0,0-.82-4.37,5.58-4.22,0,0,2,1,2.17-1.63,0,0-.28-17.69-.14-19.06,0,0,.55-1.62-2.58-1.89,0,0-4.5.94-5-2.05,0,0-.28-4.49,2.71-4.76,0,0,3.67.27,4.36-.67,0,0,.82.53.68-2.73l.14-5.58s.4-1.5,2.71-1.36c0,0,4.22.27,4.77-.14a14.68,14.68,0,0,0,1.22-1.76s2.18-.14,2.59.4c0,0,3.26,2.18,15.65,1.36,0,0,1.9,0,2.31.55,0,0,2.31,1.77,3.67-.14a44.57,44.57,0,0,1,8.16-.27s6.66,1.76,11.29-2l1.5.28s1.9,3.12,3.27,2.17c0,0,4.07-.41,4.77.41,0,0,1.35,2,.66,7.35,0,0-.81,2.32,3.13,2.32,0,0,4.5-.82,4,3.38,0,0,1.23,4.77-6.25,4.09A4.32,4.32,0,0,0,77,45.08s-.13,15.5-.26,17.27c0,0-.14,2.45,3.12,2.32,0,0,4.36-.29,4.49,3.68,0,0,.54,5.16-5.71,4.2,0,0-1.9.29-2.18,1.5l-.27,6.8s.15,3.41-3.68,2.6c-.54,0-21.21.39-23-.14C49.55,83.31,48.6,83.18,48.34,83.71Z"/><path class="cls-3" d="M22.62,27.67s.28,2.71.28,3.39-.42,39.32-.42,39.32a4.65,4.65,0,0,1-2.18,4.49s-.67.27-.81-1.63l.28-40.81s.26-5,2.85-4.76"/><path class="cls-5" d="M22.63,27.66s.27,2.72.27,3.4-.41,39.32-.41,39.32a4.68,4.68,0,0,1-2.19,4.5s-.67.27-.81-1.63l.27-40.82S20,27.39,22.63,27.66Z"/><path class="cls-3" d="M18.13,75.27s.27-38.36.14-39,.13.55.13.55-.4-6.66,1.37-9.39c0,0-.55-2.31-3.68.54L16,33.51s0,3.13-2.86,3c0,0-3.27-.14-4.77,1.37,0,0-.81,3,2.31,2.45,0,0,4.9,0,5.17,2l-.27,20.54s1.1,3.4-2.72,3.4c0,0-4.62-.26-4.49,2.6,0,0,.95,2.45,4.91,1.63,0,0,2.85.55,2.72,3.25V79s-.28,2,2.44,2.17H39.62s1.09.14,1.09-1.22c0,0-.14-1.08-1.76-1.08l-17.68-.28s-2.87.95-3.14-3.27"/><path class="cls-3" d="M21.81,75.55S21.27,77.46,23.3,77h14l3.81.82s4-1,0-3.13c0,0-12.52.14-13.61-.13l-3.12-.82s-1.37-.54-2.58,1.77"/><path class="cls-5" d="M21.8,75.55s-.54,1.92,1.49,1.49h14l3.82.82s3.95-1,0-3.13c0,0-12.53.14-13.62-.14,0,0-2.58-.68-3.13-.81C24.38,73.78,23,73.24,21.8,75.55Z"/><path class="cls-3" d="M45.07,77.46s-2.59,0-2.45,3.38a2.93,2.93,0,0,0,3,2.61,2.74,2.74,0,0,0,2.18-3.14s-1.5-3.4-2.72-2.85"/><path class="cls-3" d="M47,76.09s1.22-1.36,2.05-1.36c0,0,13.59,1.23,15.91-.4,0,0,2-.41,2.58,0,0,0,2,1.63,2,2.58,0,0-.13,1.23-2.57.55l-16.2.13s-4.22,1-3.81-1.5"/><path class="cls-5" d="M47,76.09s1.22-1.36,2-1.36c0,0,13.6,1.23,15.92-.4,0,0,2-.41,2.58,0,0,0,2,1.63,2,2.58,0,0-.13,1.24-2.57.55l-16.2.14S46.56,78.54,47,76.09Z"/><path class="cls-3" d="M49.15,80.17s0-1.08,1.89-1.08L70.1,79s1.76.94,1.76-2.31c0,0,.7-14.84.76-31.16,0-4.86.24-10,.06-14.68,0,0-.41-2-1-2.46,0,0,0-2.18,2.32-1.35,0,0,2,.13,1.49,3.25L75.67,35s-.41,2,3.27,1.49c0,0,3.66.55,3.8,1.91,0,0,1.1,2.73-3.25,2.45H76.36a2.25,2.25,0,0,0-1,2.45L75,63s-.28,3.4,3,3.28c0,0,3.4-.15,4.07.94,0,0,2.32,3.41-2.71,3.13,0,0-3.13-.14-3.81.4,0,0-.54.7-1,7.08,0,0,.27,3.81-2.59,3.4,0,0-18.91.26-20.67-.14,0,0-1.91.55-2.18-1"/><path class="cls-3" d="M24.65,26.43,24.26,70.1s-.14,2,3.26,2.44c0,0,3.95.41,4.89,0,0,0,2.58-.13,9.25.14,0,0,1.64,1.63,1.77-.4,0,0,1.09-35.38.55-42.72,0,0-.14-3.13-2.46-3.27,0,0-10.33.82-11.28,0L26.16,25.2s-1.64.13-1.51,1.23"/><path class="cls-3" d="M67.78,28.06l-.13,43s1.09,3.82,2.86,3.41a11,11,0,0,0,.4-2.19l.56-40.95s-1.37-6.53-3.69-3.27"/><path class="cls-5" d="M67.78,28.06l-.13,43s1.09,3.82,2.86,3.41a11,11,0,0,0,.4-2.19l.56-40.95s-1.37-6.53-3.69-3.27"/><path class="cls-5" d="M67.78,28.06l-.13,43s1.09,3.82,2.86,3.41a11,11,0,0,0,.4-2.19l.56-40.95S70.1,24.8,67.78,28.06Z"/><path class="cls-3" d="M46.16,28.43S45.75,49,45.88,49.66l-.26,17.28-.55,6s.81,1.24,1.49.42c0,0,4.36-1.09,7.08-.68,0,0,8.71.82,10.47-.55,0,0,1.36.68,1.77-1.5,0,0,.54-38.08.27-38.77,0,0,.55-5.43.27-6,0,0-.13-1.24-2.43-.15,0,0,.26,1.09-12.66.69,0,0-4.9-.14-5.17,2"/><path d="M42,41l-1.23,2.6s-3,13.19-4.61,15.9c0,0-.28,2.73-2.59.55,0,0-5.31-16.73-5.58-17.28l-1.77-1.22s-1.07-1.5.82-1.63l5,.13s1.63,1.36-.54,2.87c0,0,.27,2.18,3.13,10.46,0,0,.81,3.13,1.76.82l2.73-9.66-.82-2.86s-.82-1.36.41-1.49c0,0,2.86-.27,3.26.81"/><path d="M49.86,43.19l-.15,14.42-.39,1.09S48,60.46,48.9,60.6c0,0-1.21.82,8.7,1,0,0,3.82.67,2.86-4.23,0,0-.4-1.76-1.77.83,0,0-.41,2.16-5.3,1.49a3.25,3.25,0,0,1-1.09-2v-6s-.14-1.5,2.18-1.34c0,0,2.58,1.62,3,.93,0,0,1-2.17,0-3.53,0,0-1.23-.13-1.36.41,0,0-.82,1.63-3.13.68a5.69,5.69,0,0,1-.41-4s-.27-3.4,2-3.12c0,0,2.72.54,3,1.36,0,0,.68,1.64,1.37-.27l-.69-2.32s-.4-.95-1.08-.68c0,0-4.63.68-5.18.13l-3.67.41a1.58,1.58,0,0,0,1.1,2,1,1,0,0,1,.41.82"/></svg>